<mxfile host="app.diagrams.net" modified="2020-11-27T18:49:50.135Z" agent="5.0 (Macintosh; Intel Mac OS X 10_15_7) AppleWebKit/605.1.15 (KHTML, like Gecko) Version/14.0.1 Safari/605.1.15" etag="PzWCk8_sblyYlyVKl29i" version="13.10.4" type="github">
  <diagram id="C5RBs43oDa-KdzZeNtuy" name="Page-1">
    <mxGraphModel dx="915" dy="631" grid="1" gridSize="10" guides="1" tooltips="1" connect="1" arrows="1" fold="1" page="1" pageScale="1" pageWidth="827" pageHeight="1169" math="0" shadow="0">
      <root>
        <mxCell id="WIyWlLk6GJQsqaUBKTNV-0" />
        <mxCell id="WIyWlLk6GJQsqaUBKTNV-1" parent="WIyWlLk6GJQsqaUBKTNV-0" />
        <mxCell id="CLZWpeNAc29xH-9u2mQK-0" value="Main View" style="whiteSpace=wrap;html=1;aspect=fixed;rounded=1;" vertex="1" parent="WIyWlLk6GJQsqaUBKTNV-1">
          <mxGeometry x="500" y="340" width="110" height="110" as="geometry" />
        </mxCell>
        <mxCell id="CLZWpeNAc29xH-9u2mQK-1" value="&lt;b&gt;ViewModel&lt;/b&gt;&lt;br&gt;createAnnotation()" style="whiteSpace=wrap;html=1;aspect=fixed;rounded=1;" vertex="1" parent="WIyWlLk6GJQsqaUBKTNV-1">
          <mxGeometry x="300" y="340" width="110" height="110" as="geometry" />
        </mxCell>
        <mxCell id="CLZWpeNAc29xH-9u2mQK-2" value="Sub Views" style="whiteSpace=wrap;html=1;aspect=fixed;rounded=1;" vertex="1" parent="WIyWlLk6GJQsqaUBKTNV-1">
          <mxGeometry x="390" y="170" width="80" height="80" as="geometry" />
        </mxCell>
        <mxCell id="CLZWpeNAc29xH-9u2mQK-4" value="" style="endArrow=classic;startArrow=classic;html=1;exitX=0.5;exitY=0;exitDx=0;exitDy=0;entryX=0.5;entryY=1;entryDx=0;entryDy=0;" edge="1" parent="WIyWlLk6GJQsqaUBKTNV-1" source="CLZWpeNAc29xH-9u2mQK-0" target="CLZWpeNAc29xH-9u2mQK-2">
          <mxGeometry width="50" height="50" relative="1" as="geometry">
            <mxPoint x="380" y="170" as="sourcePoint" />
            <mxPoint x="430" y="120" as="targetPoint" />
          </mxGeometry>
        </mxCell>
        <mxCell id="CLZWpeNAc29xH-9u2mQK-5" value="" style="endArrow=classic;startArrow=classic;html=1;exitX=1;exitY=0.5;exitDx=0;exitDy=0;entryX=0;entryY=0.5;entryDx=0;entryDy=0;" edge="1" parent="WIyWlLk6GJQsqaUBKTNV-1" source="CLZWpeNAc29xH-9u2mQK-1" target="CLZWpeNAc29xH-9u2mQK-0">
          <mxGeometry width="50" height="50" relative="1" as="geometry">
            <mxPoint x="310" y="380" as="sourcePoint" />
            <mxPoint x="413" y="395" as="targetPoint" />
          </mxGeometry>
        </mxCell>
        <mxCell id="CLZWpeNAc29xH-9u2mQK-6" value="" style="endArrow=classic;startArrow=classic;html=1;entryX=0;entryY=1;entryDx=0;entryDy=0;" edge="1" parent="WIyWlLk6GJQsqaUBKTNV-1" source="CLZWpeNAc29xH-9u2mQK-1" target="CLZWpeNAc29xH-9u2mQK-2">
          <mxGeometry width="50" height="50" relative="1" as="geometry">
            <mxPoint x="400" y="320" as="sourcePoint" />
            <mxPoint x="450" y="270" as="targetPoint" />
            <Array as="points">
              <mxPoint x="310" y="340" />
            </Array>
          </mxGeometry>
        </mxCell>
        <mxCell id="CLZWpeNAc29xH-9u2mQK-7" value="&lt;b&gt;Model&lt;/b&gt;&lt;br&gt;Grave struct" style="whiteSpace=wrap;html=1;aspect=fixed;rounded=1;" vertex="1" parent="WIyWlLk6GJQsqaUBKTNV-1">
          <mxGeometry x="90" y="340" width="110" height="110" as="geometry" />
        </mxCell>
        <mxCell id="CLZWpeNAc29xH-9u2mQK-8" value="" style="endArrow=classic;startArrow=classic;html=1;exitX=1;exitY=0.5;exitDx=0;exitDy=0;entryX=0;entryY=0.5;entryDx=0;entryDy=0;" edge="1" parent="WIyWlLk6GJQsqaUBKTNV-1" source="CLZWpeNAc29xH-9u2mQK-7" target="CLZWpeNAc29xH-9u2mQK-1">
          <mxGeometry width="50" height="50" relative="1" as="geometry">
            <mxPoint x="170" y="400" as="sourcePoint" />
            <mxPoint x="227" y="380" as="targetPoint" />
          </mxGeometry>
        </mxCell>
        <mxCell id="CLZWpeNAc29xH-9u2mQK-9" value="&lt;b&gt;Networking class&lt;/b&gt;&lt;br&gt;fetchData()" style="whiteSpace=wrap;html=1;aspect=fixed;rounded=1;" vertex="1" parent="WIyWlLk6GJQsqaUBKTNV-1">
          <mxGeometry x="315" y="520" width="80" height="80" as="geometry" />
        </mxCell>
        <mxCell id="CLZWpeNAc29xH-9u2mQK-11" value="" style="endArrow=classic;startArrow=classic;html=1;exitX=0.5;exitY=0;exitDx=0;exitDy=0;entryX=0.5;entryY=1;entryDx=0;entryDy=0;" edge="1" parent="WIyWlLk6GJQsqaUBKTNV-1" source="CLZWpeNAc29xH-9u2mQK-9" target="CLZWpeNAc29xH-9u2mQK-1">
          <mxGeometry width="50" height="50" relative="1" as="geometry">
            <mxPoint x="400" y="420" as="sourcePoint" />
            <mxPoint x="450" y="370" as="targetPoint" />
            <Array as="points" />
          </mxGeometry>
        </mxCell>
      </root>
    </mxGraphModel>
  </diagram>
</mxfile>
